<?xml version="1.0" encoding="UTF-8"?><svg id="Layer_2" xmlns="http://www.w3.org/2000/svg" viewBox="0 0 128 127.99"><defs><style>.cls-1{fill:#f5f5f5;}.cls-2{fill:#2374e1;}.cls-3{fill:#292929;}</style></defs><g id="License_Manager"><path class="cls-3" d="m128,64c0,35.34-28.65,63.99-64,63.99S0,99.34,0,64,28.65,0,64,0s64,28.65,64,64Z"/><path class="cls-1" d="m83.96,33.15h-15.65l-18.85,61.68h9.53l4.82-17.37h23.89l5.22,17.37h10.17l-19.13-61.68Zm-11.44,7.72l.57-2.27h4.88l1.08,4.33c.88,3.54,1.88,7.56,2.87,10.88l5.35,18.21h-22.92l5.08-18.18c.64-2.26,1.26-5.01,1.86-7.68.42-1.84.82-3.66,1.23-5.29Z"/><path class="cls-2" d="m37.42,79.96c-1.23,0-2.23-1-2.23-2.23v-16.03l-1.1-.89c-5.9-4.8-8.78-12.47-7.53-20.04,1.53-9.22,9.11-16.4,18.44-17.45.82-.09,1.64-.14,2.46-.14,1.68,0,3.36.2,4.98.59.58.14,1.07.5,1.38,1.01.31.51.4,1.11.26,1.69-.24,1.01-1.13,1.71-2.17,1.71-.18,0-.35-.02-.53-.06-1.28-.31-2.61-.47-3.94-.47-.65,0-1.3.04-1.95.11-7.24.82-13.36,6.6-14.54,13.75-1.14,6.86,1.79,13.39,7.64,17.06.66.41,1.05,1.12,1.05,1.89v17.28c0,1.23-1,2.23-2.23,2.23Z"/><circle class="cls-2" cx="47.46" cy="39.91" r="3.35"/><path class="cls-2" d="m46.34,104.82c-1.19,0-2.31-.46-3.16-1.31l-6.69-6.69c-.82-.82-1.31-1.99-1.31-3.16v-4.23c0-1.23,1-2.23,2.23-2.23s2.23,1,2.23,2.23v4.15l-.04.04h.01s.02,0,.02,0v.05l6.69,6.69,8-8-5.12-5.11c-.42-.42-.65-.98-.65-1.58s.23-1.16.65-1.58l5.12-5.12-5.12-5.12c-.87-.87-.87-2.29,0-3.16l6.04-6.04v-4.28c0-.77.39-1.48,1.05-1.89,4.93-3.09,7.88-8.36,7.88-14.11,0-4.13-1.52-8.09-4.27-11.17-.4-.44-.6-1.02-.57-1.61.03-.59.3-1.14.74-1.54.41-.37.94-.57,1.49-.57.64,0,1.23.26,1.66.74,3.49,3.89,5.41,8.92,5.41,14.14,0,6.37-2.85,12.34-7.82,16.35l-1.1.89v3.03c0,1.19-.46,2.31-1.31,3.16l-4.46,4.46,3.54,3.54c.84.84,1.31,1.96,1.31,3.15,0,1.19-.46,2.32-1.31,3.16l-3.54,3.54,3.54,3.54c.84.84,1.31,1.96,1.31,3.15,0,1.19-.46,2.32-1.31,3.16l-8,8c-.84.84-1.96,1.31-3.15,1.31h0Z"/></g></svg>